<mxfile host="app.diagrams.net" modified="2024-03-26T07:21:04.021Z" agent="Mozilla/5.0 (Windows NT 10.0; Win64; x64) AppleWebKit/537.36 (KHTML, like Gecko) Chrome/122.0.0.0 Safari/537.36" etag="MKXU3AHSsd5dXxCCM_QZ" version="22.1.16" type="device" pages="3">
  <diagram name="分发系统数据流" id="cCGnZcnVvxLoGu06B5ku">
    <mxGraphModel dx="795" dy="465" grid="1" gridSize="10" guides="1" tooltips="1" connect="1" arrows="1" fold="1" page="1" pageScale="1" pageWidth="827" pageHeight="1169" math="0" shadow="0">
      <root>
        <mxCell id="0" />
        <mxCell id="1" parent="0" />
        <mxCell id="J8xoONH6IcjNU4KCDM2b-1" value="DB" style="shape=cylinder3;whiteSpace=wrap;html=1;boundedLbl=1;backgroundOutline=1;size=15;" vertex="1" parent="1">
          <mxGeometry x="650" y="190" width="50" height="80" as="geometry" />
        </mxCell>
        <mxCell id="J8xoONH6IcjNU4KCDM2b-2" value="工人A" style="shape=umlActor;verticalLabelPosition=bottom;verticalAlign=top;html=1;outlineConnect=0;" vertex="1" parent="1">
          <mxGeometry x="150" y="120" width="30" height="60" as="geometry" />
        </mxCell>
        <mxCell id="J8xoONH6IcjNU4KCDM2b-3" value="" style="rounded=0;whiteSpace=wrap;html=1;fillColor=none;" vertex="1" parent="1">
          <mxGeometry x="240" y="120" width="350" height="240" as="geometry" />
        </mxCell>
        <mxCell id="J8xoONH6IcjNU4KCDM2b-4" value="分发系统" style="text;html=1;align=center;verticalAlign=middle;resizable=0;points=[];autosize=1;strokeColor=none;fillColor=none;" vertex="1" parent="1">
          <mxGeometry x="230" y="90" width="70" height="30" as="geometry" />
        </mxCell>
        <mxCell id="J8xoONH6IcjNU4KCDM2b-6" value="工人B" style="shape=umlActor;verticalLabelPosition=bottom;verticalAlign=top;html=1;outlineConnect=0;" vertex="1" parent="1">
          <mxGeometry x="150" y="270" width="30" height="60" as="geometry" />
        </mxCell>
        <mxCell id="J8xoONH6IcjNU4KCDM2b-12" value="请求系统" style="rounded=1;whiteSpace=wrap;html=1;" vertex="1" parent="1">
          <mxGeometry x="260" y="130" width="100" height="40" as="geometry" />
        </mxCell>
        <mxCell id="J8xoONH6IcjNU4KCDM2b-13" value="请求系统" style="rounded=1;whiteSpace=wrap;html=1;" vertex="1" parent="1">
          <mxGeometry x="260" y="280" width="100" height="40" as="geometry" />
        </mxCell>
        <mxCell id="J8xoONH6IcjNU4KCDM2b-14" value="" style="endArrow=classic;html=1;rounded=0;entryX=0;entryY=0.5;entryDx=0;entryDy=0;" edge="1" parent="1" source="J8xoONH6IcjNU4KCDM2b-2" target="J8xoONH6IcjNU4KCDM2b-12">
          <mxGeometry width="50" height="50" relative="1" as="geometry">
            <mxPoint x="410" y="270" as="sourcePoint" />
            <mxPoint x="460" y="220" as="targetPoint" />
          </mxGeometry>
        </mxCell>
        <mxCell id="J8xoONH6IcjNU4KCDM2b-15" value="" style="endArrow=classic;html=1;rounded=0;entryX=0;entryY=0.5;entryDx=0;entryDy=0;" edge="1" parent="1">
          <mxGeometry width="50" height="50" relative="1" as="geometry">
            <mxPoint x="180" y="300" as="sourcePoint" />
            <mxPoint x="260" y="300" as="targetPoint" />
          </mxGeometry>
        </mxCell>
        <mxCell id="J8xoONH6IcjNU4KCDM2b-16" value="" style="endArrow=classic;html=1;rounded=0;exitX=0.5;exitY=0;exitDx=0;exitDy=0;exitPerimeter=0;entryX=1;entryY=0.5;entryDx=0;entryDy=0;" edge="1" parent="1" source="J8xoONH6IcjNU4KCDM2b-1" target="J8xoONH6IcjNU4KCDM2b-12">
          <mxGeometry width="50" height="50" relative="1" as="geometry">
            <mxPoint x="410" y="270" as="sourcePoint" />
            <mxPoint x="680" y="120" as="targetPoint" />
            <Array as="points">
              <mxPoint x="675" y="150" />
            </Array>
          </mxGeometry>
        </mxCell>
        <mxCell id="J8xoONH6IcjNU4KCDM2b-17" value="" style="endArrow=classic;html=1;rounded=0;exitX=0.5;exitY=1;exitDx=0;exitDy=0;exitPerimeter=0;entryX=1;entryY=0.5;entryDx=0;entryDy=0;" edge="1" parent="1" source="J8xoONH6IcjNU4KCDM2b-1" target="J8xoONH6IcjNU4KCDM2b-13">
          <mxGeometry width="50" height="50" relative="1" as="geometry">
            <mxPoint x="410" y="270" as="sourcePoint" />
            <mxPoint x="460" y="220" as="targetPoint" />
            <Array as="points">
              <mxPoint x="675" y="300" />
            </Array>
          </mxGeometry>
        </mxCell>
        <mxCell id="J8xoONH6IcjNU4KCDM2b-18" value="质量管控系统" style="rounded=1;whiteSpace=wrap;html=1;" vertex="1" parent="1">
          <mxGeometry x="410" y="200" width="110" height="50" as="geometry" />
        </mxCell>
        <mxCell id="J8xoONH6IcjNU4KCDM2b-19" value="" style="endArrow=classic;html=1;rounded=0;entryX=0;entryY=0.5;entryDx=0;entryDy=0;" edge="1" parent="1" source="J8xoONH6IcjNU4KCDM2b-2" target="J8xoONH6IcjNU4KCDM2b-18">
          <mxGeometry width="50" height="50" relative="1" as="geometry">
            <mxPoint x="160" y="220" as="sourcePoint" />
            <mxPoint x="460" y="220" as="targetPoint" />
            <Array as="points">
              <mxPoint x="165" y="225" />
            </Array>
          </mxGeometry>
        </mxCell>
        <mxCell id="J8xoONH6IcjNU4KCDM2b-21" value="" style="endArrow=none;html=1;rounded=0;" edge="1" parent="1" source="J8xoONH6IcjNU4KCDM2b-6">
          <mxGeometry width="50" height="50" relative="1" as="geometry">
            <mxPoint x="410" y="270" as="sourcePoint" />
            <mxPoint x="165" y="220" as="targetPoint" />
          </mxGeometry>
        </mxCell>
        <mxCell id="J8xoONH6IcjNU4KCDM2b-22" value="" style="endArrow=classic;html=1;rounded=0;exitX=1;exitY=0.5;exitDx=0;exitDy=0;entryX=-0.015;entryY=0.438;entryDx=0;entryDy=0;entryPerimeter=0;" edge="1" parent="1" source="J8xoONH6IcjNU4KCDM2b-18" target="J8xoONH6IcjNU4KCDM2b-1">
          <mxGeometry width="50" height="50" relative="1" as="geometry">
            <mxPoint x="410" y="270" as="sourcePoint" />
            <mxPoint x="460" y="220" as="targetPoint" />
          </mxGeometry>
        </mxCell>
        <mxCell id="J8xoONH6IcjNU4KCDM2b-23" value="激励系统" style="rounded=0;whiteSpace=wrap;html=1;" vertex="1" parent="1">
          <mxGeometry x="410" y="40" width="140" height="60" as="geometry" />
        </mxCell>
        <mxCell id="J8xoONH6IcjNU4KCDM2b-24" value="" style="endArrow=classic;html=1;rounded=0;exitX=0.5;exitY=0;exitDx=0;exitDy=0;entryX=0.384;entryY=1.014;entryDx=0;entryDy=0;entryPerimeter=0;" edge="1" parent="1" source="J8xoONH6IcjNU4KCDM2b-18" target="J8xoONH6IcjNU4KCDM2b-23">
          <mxGeometry width="50" height="50" relative="1" as="geometry">
            <mxPoint x="410" y="200" as="sourcePoint" />
            <mxPoint x="460" y="150" as="targetPoint" />
          </mxGeometry>
        </mxCell>
      </root>
    </mxGraphModel>
  </diagram>
  <diagram id="bhFQqM4WW_lGv-IJn8oy" name="请求系统">
    <mxGraphModel dx="1654" dy="696" grid="1" gridSize="10" guides="1" tooltips="1" connect="1" arrows="1" fold="1" page="1" pageScale="1" pageWidth="827" pageHeight="1169" math="0" shadow="0">
      <root>
        <mxCell id="0" />
        <mxCell id="1" parent="0" />
        <mxCell id="Q1pQuhnml-HJQAPUpsUn-2" value="请求任务" style="rounded=0;whiteSpace=wrap;html=1;" vertex="1" parent="1">
          <mxGeometry x="195" y="180" width="100" height="40" as="geometry" />
        </mxCell>
        <mxCell id="Q1pQuhnml-HJQAPUpsUn-3" value="开始" style="ellipse;whiteSpace=wrap;html=1;" vertex="1" parent="1">
          <mxGeometry x="207.5" y="90" width="75" height="40" as="geometry" />
        </mxCell>
        <mxCell id="Q1pQuhnml-HJQAPUpsUn-4" value="" style="endArrow=classic;html=1;rounded=0;exitX=0.5;exitY=1;exitDx=0;exitDy=0;entryX=0.5;entryY=0;entryDx=0;entryDy=0;" edge="1" parent="1" source="Q1pQuhnml-HJQAPUpsUn-3" target="Q1pQuhnml-HJQAPUpsUn-2">
          <mxGeometry width="50" height="50" relative="1" as="geometry">
            <mxPoint x="330" y="240" as="sourcePoint" />
            <mxPoint x="380" y="190" as="targetPoint" />
          </mxGeometry>
        </mxCell>
        <mxCell id="Q1pQuhnml-HJQAPUpsUn-5" value="" style="endArrow=classic;html=1;rounded=0;exitX=0.5;exitY=1;exitDx=0;exitDy=0;" edge="1" parent="1" source="Q1pQuhnml-HJQAPUpsUn-2">
          <mxGeometry width="50" height="50" relative="1" as="geometry">
            <mxPoint x="330" y="240" as="sourcePoint" />
            <mxPoint x="245" y="260" as="targetPoint" />
          </mxGeometry>
        </mxCell>
        <mxCell id="Q1pQuhnml-HJQAPUpsUn-6" value="已标注过？" style="rhombus;whiteSpace=wrap;html=1;" vertex="1" parent="1">
          <mxGeometry x="191.25" y="260" width="107.5" height="60" as="geometry" />
        </mxCell>
        <mxCell id="Q1pQuhnml-HJQAPUpsUn-7" value="" style="endArrow=classic;html=1;rounded=0;entryX=0;entryY=0.5;entryDx=0;entryDy=0;" edge="1" parent="1" target="Q1pQuhnml-HJQAPUpsUn-9">
          <mxGeometry width="50" height="50" relative="1" as="geometry">
            <mxPoint x="300" y="290" as="sourcePoint" />
            <mxPoint x="410" y="290" as="targetPoint" />
          </mxGeometry>
        </mxCell>
        <mxCell id="Q1pQuhnml-HJQAPUpsUn-8" value="是" style="edgeLabel;html=1;align=center;verticalAlign=middle;resizable=0;points=[];" vertex="1" connectable="0" parent="Q1pQuhnml-HJQAPUpsUn-7">
          <mxGeometry x="-0.2113" y="2" relative="1" as="geometry">
            <mxPoint as="offset" />
          </mxGeometry>
        </mxCell>
        <mxCell id="Q1pQuhnml-HJQAPUpsUn-9" value="放弃" style="rounded=0;whiteSpace=wrap;html=1;" vertex="1" parent="1">
          <mxGeometry x="414" y="270" width="96" height="40" as="geometry" />
        </mxCell>
        <mxCell id="Q1pQuhnml-HJQAPUpsUn-10" value="" style="endArrow=classic;html=1;rounded=0;exitX=0.5;exitY=1;exitDx=0;exitDy=0;" edge="1" parent="1" source="Q1pQuhnml-HJQAPUpsUn-6">
          <mxGeometry width="50" height="50" relative="1" as="geometry">
            <mxPoint x="330" y="310" as="sourcePoint" />
            <mxPoint x="245" y="360" as="targetPoint" />
          </mxGeometry>
        </mxCell>
        <mxCell id="Q1pQuhnml-HJQAPUpsUn-11" value="否" style="edgeLabel;html=1;align=center;verticalAlign=middle;resizable=0;points=[];" vertex="1" connectable="0" parent="Q1pQuhnml-HJQAPUpsUn-10">
          <mxGeometry x="-0.1121" y="-2" relative="1" as="geometry">
            <mxPoint as="offset" />
          </mxGeometry>
        </mxCell>
        <mxCell id="Q1pQuhnml-HJQAPUpsUn-12" value="锁定" style="rounded=0;whiteSpace=wrap;html=1;" vertex="1" parent="1">
          <mxGeometry x="191.25" y="360" width="98.75" height="50" as="geometry" />
        </mxCell>
        <mxCell id="Q1pQuhnml-HJQAPUpsUn-13" value="" style="endArrow=classic;html=1;rounded=0;exitX=0.5;exitY=1;exitDx=0;exitDy=0;" edge="1" parent="1" source="Q1pQuhnml-HJQAPUpsUn-12" target="Q1pQuhnml-HJQAPUpsUn-14">
          <mxGeometry width="50" height="50" relative="1" as="geometry">
            <mxPoint x="330" y="380" as="sourcePoint" />
            <mxPoint x="241" y="460" as="targetPoint" />
          </mxGeometry>
        </mxCell>
        <mxCell id="Q1pQuhnml-HJQAPUpsUn-14" value="派发给用户" style="rounded=0;whiteSpace=wrap;html=1;" vertex="1" parent="1">
          <mxGeometry x="190.93" y="450" width="99.07" height="50" as="geometry" />
        </mxCell>
        <mxCell id="Q1pQuhnml-HJQAPUpsUn-15" value="" style="endArrow=classic;html=1;rounded=0;exitX=0.5;exitY=1;exitDx=0;exitDy=0;" edge="1" parent="1" source="Q1pQuhnml-HJQAPUpsUn-14" target="Q1pQuhnml-HJQAPUpsUn-16">
          <mxGeometry width="50" height="50" relative="1" as="geometry">
            <mxPoint x="330" y="520" as="sourcePoint" />
            <mxPoint x="240" y="540" as="targetPoint" />
          </mxGeometry>
        </mxCell>
        <mxCell id="Q1pQuhnml-HJQAPUpsUn-16" value="标注完成？" style="rhombus;whiteSpace=wrap;html=1;" vertex="1" parent="1">
          <mxGeometry x="195" y="530" width="89.53" height="60" as="geometry" />
        </mxCell>
        <mxCell id="Q1pQuhnml-HJQAPUpsUn-17" value="" style="endArrow=classic;html=1;rounded=0;exitX=0.5;exitY=1;exitDx=0;exitDy=0;" edge="1" parent="1" source="Q1pQuhnml-HJQAPUpsUn-16" target="Q1pQuhnml-HJQAPUpsUn-18">
          <mxGeometry width="50" height="50" relative="1" as="geometry">
            <mxPoint x="330" y="590" as="sourcePoint" />
            <mxPoint x="240" y="630" as="targetPoint" />
          </mxGeometry>
        </mxCell>
        <mxCell id="Q1pQuhnml-HJQAPUpsUn-19" value="是" style="edgeLabel;html=1;align=center;verticalAlign=middle;resizable=0;points=[];" vertex="1" connectable="0" parent="Q1pQuhnml-HJQAPUpsUn-17">
          <mxGeometry x="-0.3444" y="2" relative="1" as="geometry">
            <mxPoint as="offset" />
          </mxGeometry>
        </mxCell>
        <mxCell id="Q1pQuhnml-HJQAPUpsUn-18" value="交由质量管控系统" style="rounded=0;whiteSpace=wrap;html=1;" vertex="1" parent="1">
          <mxGeometry x="190" y="620" width="100" height="50" as="geometry" />
        </mxCell>
        <mxCell id="Q1pQuhnml-HJQAPUpsUn-20" value="" style="endArrow=classic;html=1;rounded=0;exitX=1;exitY=0.5;exitDx=0;exitDy=0;" edge="1" parent="1" source="Q1pQuhnml-HJQAPUpsUn-16">
          <mxGeometry width="50" height="50" relative="1" as="geometry">
            <mxPoint x="330" y="590" as="sourcePoint" />
            <mxPoint x="380" y="560" as="targetPoint" />
          </mxGeometry>
        </mxCell>
        <mxCell id="Q1pQuhnml-HJQAPUpsUn-22" value="否" style="edgeLabel;html=1;align=center;verticalAlign=middle;resizable=0;points=[];" vertex="1" connectable="0" parent="Q1pQuhnml-HJQAPUpsUn-20">
          <mxGeometry x="-0.2006" y="2" relative="1" as="geometry">
            <mxPoint as="offset" />
          </mxGeometry>
        </mxCell>
        <mxCell id="Q1pQuhnml-HJQAPUpsUn-23" value="解除锁定，放回数据库" style="rounded=0;whiteSpace=wrap;html=1;" vertex="1" parent="1">
          <mxGeometry x="380" y="540" width="100" height="40" as="geometry" />
        </mxCell>
        <mxCell id="Q1pQuhnml-HJQAPUpsUn-24" value="" style="endArrow=classic;html=1;rounded=0;exitX=0.5;exitY=1;exitDx=0;exitDy=0;" edge="1" parent="1" source="Q1pQuhnml-HJQAPUpsUn-18" target="Q1pQuhnml-HJQAPUpsUn-25">
          <mxGeometry width="50" height="50" relative="1" as="geometry">
            <mxPoint x="310" y="540" as="sourcePoint" />
            <mxPoint x="240" y="710" as="targetPoint" />
          </mxGeometry>
        </mxCell>
        <mxCell id="Q1pQuhnml-HJQAPUpsUn-25" value="结束" style="ellipse;whiteSpace=wrap;html=1;" vertex="1" parent="1">
          <mxGeometry x="190" y="700" width="99.37" height="50" as="geometry" />
        </mxCell>
        <mxCell id="Q1pQuhnml-HJQAPUpsUn-26" value="" style="endArrow=classic;html=1;rounded=0;entryX=1;entryY=0.5;entryDx=0;entryDy=0;exitX=0.5;exitY=1;exitDx=0;exitDy=0;" edge="1" parent="1" source="Q1pQuhnml-HJQAPUpsUn-23" target="Q1pQuhnml-HJQAPUpsUn-25">
          <mxGeometry width="50" height="50" relative="1" as="geometry">
            <mxPoint x="310" y="550" as="sourcePoint" />
            <mxPoint x="360" y="500" as="targetPoint" />
            <Array as="points">
              <mxPoint x="430" y="725" />
            </Array>
          </mxGeometry>
        </mxCell>
        <mxCell id="Q1pQuhnml-HJQAPUpsUn-27" value="" style="endArrow=classic;html=1;rounded=0;exitX=0.5;exitY=0;exitDx=0;exitDy=0;entryX=1;entryY=0.5;entryDx=0;entryDy=0;" edge="1" parent="1" source="Q1pQuhnml-HJQAPUpsUn-9" target="Q1pQuhnml-HJQAPUpsUn-2">
          <mxGeometry width="50" height="50" relative="1" as="geometry">
            <mxPoint x="310" y="320" as="sourcePoint" />
            <mxPoint x="360" y="270" as="targetPoint" />
            <Array as="points">
              <mxPoint x="462" y="200" />
            </Array>
          </mxGeometry>
        </mxCell>
      </root>
    </mxGraphModel>
  </diagram>
  <diagram id="8-ksM3i0j_gJONqbRhBs" name="第 3 页">
    <mxGraphModel dx="658" dy="385" grid="1" gridSize="10" guides="1" tooltips="1" connect="1" arrows="1" fold="1" page="1" pageScale="1" pageWidth="827" pageHeight="1169" math="0" shadow="0">
      <root>
        <mxCell id="0" />
        <mxCell id="1" parent="0" />
        <mxCell id="ln2UoVWE-zgbKdHY0ksa-5" value="开始" style="ellipse;whiteSpace=wrap;html=1;" vertex="1" parent="1">
          <mxGeometry x="300" y="60" width="90" height="50" as="geometry" />
        </mxCell>
        <mxCell id="ln2UoVWE-zgbKdHY0ksa-6" value="" style="endArrow=classic;html=1;rounded=0;exitX=0.5;exitY=1;exitDx=0;exitDy=0;" edge="1" parent="1" source="ln2UoVWE-zgbKdHY0ksa-5">
          <mxGeometry width="50" height="50" relative="1" as="geometry">
            <mxPoint x="340" y="250" as="sourcePoint" />
            <mxPoint x="345" y="150" as="targetPoint" />
          </mxGeometry>
        </mxCell>
        <mxCell id="ln2UoVWE-zgbKdHY0ksa-7" value="获取用户标注结果A" style="rounded=0;whiteSpace=wrap;html=1;" vertex="1" parent="1">
          <mxGeometry x="300" y="150" width="90" height="50" as="geometry" />
        </mxCell>
        <mxCell id="ln2UoVWE-zgbKdHY0ksa-10" value="" style="endArrow=classic;html=1;rounded=0;exitX=0.5;exitY=1;exitDx=0;exitDy=0;" edge="1" parent="1" source="ln2UoVWE-zgbKdHY0ksa-7" target="ln2UoVWE-zgbKdHY0ksa-11">
          <mxGeometry width="50" height="50" relative="1" as="geometry">
            <mxPoint x="340" y="250" as="sourcePoint" />
            <mxPoint x="345" y="240" as="targetPoint" />
          </mxGeometry>
        </mxCell>
        <mxCell id="ln2UoVWE-zgbKdHY0ksa-11" value="第一次标注？" style="rhombus;whiteSpace=wrap;html=1;" vertex="1" parent="1">
          <mxGeometry x="293.75" y="230" width="102.5" height="60" as="geometry" />
        </mxCell>
        <mxCell id="ln2UoVWE-zgbKdHY0ksa-13" value="" style="endArrow=classic;html=1;rounded=0;exitX=1;exitY=0.5;exitDx=0;exitDy=0;" edge="1" parent="1" source="ln2UoVWE-zgbKdHY0ksa-11">
          <mxGeometry width="50" height="50" relative="1" as="geometry">
            <mxPoint x="414" y="260" as="sourcePoint" />
            <mxPoint x="490" y="260" as="targetPoint" />
          </mxGeometry>
        </mxCell>
        <mxCell id="ln2UoVWE-zgbKdHY0ksa-14" value="是" style="edgeLabel;html=1;align=center;verticalAlign=middle;resizable=0;points=[];" vertex="1" connectable="0" parent="ln2UoVWE-zgbKdHY0ksa-13">
          <mxGeometry x="-0.23" y="-2" relative="1" as="geometry">
            <mxPoint as="offset" />
          </mxGeometry>
        </mxCell>
        <mxCell id="ln2UoVWE-zgbKdHY0ksa-15" value="放入数据库，等待下次派发" style="rounded=0;whiteSpace=wrap;html=1;" vertex="1" parent="1">
          <mxGeometry x="490" y="240" width="105" height="40" as="geometry" />
        </mxCell>
        <mxCell id="ln2UoVWE-zgbKdHY0ksa-16" value="" style="endArrow=classic;html=1;rounded=0;exitX=0.5;exitY=1;exitDx=0;exitDy=0;entryX=0.5;entryY=0;entryDx=0;entryDy=0;" edge="1" parent="1" source="ln2UoVWE-zgbKdHY0ksa-11" target="ln2UoVWE-zgbKdHY0ksa-21">
          <mxGeometry width="50" height="50" relative="1" as="geometry">
            <mxPoint x="340" y="320" as="sourcePoint" />
            <mxPoint x="345" y="350" as="targetPoint" />
          </mxGeometry>
        </mxCell>
        <mxCell id="ln2UoVWE-zgbKdHY0ksa-17" value="否" style="edgeLabel;html=1;align=center;verticalAlign=middle;resizable=0;points=[];" vertex="1" connectable="0" parent="ln2UoVWE-zgbKdHY0ksa-16">
          <mxGeometry x="-0.2241" y="-2" relative="1" as="geometry">
            <mxPoint as="offset" />
          </mxGeometry>
        </mxCell>
        <mxCell id="ln2UoVWE-zgbKdHY0ksa-18" value="之前标注结果" style="rounded=0;whiteSpace=wrap;html=1;" vertex="1" parent="1">
          <mxGeometry x="110" y="355" width="90" height="40" as="geometry" />
        </mxCell>
        <mxCell id="ln2UoVWE-zgbKdHY0ksa-19" value="" style="endArrow=classic;html=1;rounded=0;exitX=1;exitY=0.5;exitDx=0;exitDy=0;entryX=0;entryY=0.5;entryDx=0;entryDy=0;" edge="1" parent="1" source="ln2UoVWE-zgbKdHY0ksa-18" target="ln2UoVWE-zgbKdHY0ksa-21">
          <mxGeometry width="50" height="50" relative="1" as="geometry">
            <mxPoint x="340" y="320" as="sourcePoint" />
            <mxPoint x="240" y="375" as="targetPoint" />
          </mxGeometry>
        </mxCell>
        <mxCell id="ln2UoVWE-zgbKdHY0ksa-21" value="一致性比对" style="rhombus;whiteSpace=wrap;html=1;" vertex="1" parent="1">
          <mxGeometry x="291.25" y="346.25" width="105" height="57.5" as="geometry" />
        </mxCell>
        <mxCell id="ln2UoVWE-zgbKdHY0ksa-23" value="" style="endArrow=classic;html=1;rounded=0;exitX=1;exitY=0.5;exitDx=0;exitDy=0;entryX=0.5;entryY=1;entryDx=0;entryDy=0;" edge="1" parent="1" source="ln2UoVWE-zgbKdHY0ksa-21" target="ln2UoVWE-zgbKdHY0ksa-15">
          <mxGeometry width="50" height="50" relative="1" as="geometry">
            <mxPoint x="420" y="380" as="sourcePoint" />
            <mxPoint x="500" y="375" as="targetPoint" />
            <Array as="points">
              <mxPoint x="543" y="375" />
            </Array>
          </mxGeometry>
        </mxCell>
        <mxCell id="ln2UoVWE-zgbKdHY0ksa-24" value="不一致" style="edgeLabel;html=1;align=center;verticalAlign=middle;resizable=0;points=[];" vertex="1" connectable="0" parent="ln2UoVWE-zgbKdHY0ksa-23">
          <mxGeometry x="-0.0782" y="-2" relative="1" as="geometry">
            <mxPoint as="offset" />
          </mxGeometry>
        </mxCell>
        <mxCell id="ln2UoVWE-zgbKdHY0ksa-25" value="" style="endArrow=classic;html=1;rounded=0;exitX=0.5;exitY=1;exitDx=0;exitDy=0;" edge="1" parent="1" source="ln2UoVWE-zgbKdHY0ksa-21">
          <mxGeometry width="50" height="50" relative="1" as="geometry">
            <mxPoint x="340" y="390" as="sourcePoint" />
            <mxPoint x="344" y="470" as="targetPoint" />
          </mxGeometry>
        </mxCell>
        <mxCell id="ln2UoVWE-zgbKdHY0ksa-26" value="一致" style="edgeLabel;html=1;align=center;verticalAlign=middle;resizable=0;points=[];" vertex="1" connectable="0" parent="ln2UoVWE-zgbKdHY0ksa-25">
          <mxGeometry x="-0.1088" y="-1" relative="1" as="geometry">
            <mxPoint as="offset" />
          </mxGeometry>
        </mxCell>
        <mxCell id="ln2UoVWE-zgbKdHY0ksa-28" value="任务完成，存入数据库" style="rounded=0;whiteSpace=wrap;html=1;" vertex="1" parent="1">
          <mxGeometry x="297.5" y="470" width="98.75" height="40" as="geometry" />
        </mxCell>
        <mxCell id="ln2UoVWE-zgbKdHY0ksa-29" value="结束" style="ellipse;whiteSpace=wrap;html=1;" vertex="1" parent="1">
          <mxGeometry x="309.38" y="563" width="75" height="43" as="geometry" />
        </mxCell>
        <mxCell id="ln2UoVWE-zgbKdHY0ksa-30" value="" style="endArrow=classic;html=1;rounded=0;exitX=0.5;exitY=1;exitDx=0;exitDy=0;entryX=0.5;entryY=0;entryDx=0;entryDy=0;" edge="1" parent="1" source="ln2UoVWE-zgbKdHY0ksa-28" target="ln2UoVWE-zgbKdHY0ksa-29">
          <mxGeometry width="50" height="50" relative="1" as="geometry">
            <mxPoint x="340" y="460" as="sourcePoint" />
            <mxPoint x="390" y="410" as="targetPoint" />
          </mxGeometry>
        </mxCell>
        <mxCell id="ln2UoVWE-zgbKdHY0ksa-31" value="" style="endArrow=classic;html=1;rounded=0;exitX=0.75;exitY=1;exitDx=0;exitDy=0;entryX=1;entryY=0.5;entryDx=0;entryDy=0;" edge="1" parent="1" source="ln2UoVWE-zgbKdHY0ksa-15" target="ln2UoVWE-zgbKdHY0ksa-29">
          <mxGeometry width="50" height="50" relative="1" as="geometry">
            <mxPoint x="340" y="460" as="sourcePoint" />
            <mxPoint x="390" y="410" as="targetPoint" />
            <Array as="points">
              <mxPoint x="570" y="584" />
            </Array>
          </mxGeometry>
        </mxCell>
      </root>
    </mxGraphModel>
  </diagram>
</mxfile>
